<?xml version="1.0" encoding="utf-8"?>
<!-- Generator: Adobe Illustrator 24.2.0, SVG Export Plug-In . SVG Version: 6.00 Build 0)  -->
<svg version="1.1" id="Layer_1" xmlns="http://www.w3.org/2000/svg" xmlns:xlink="http://www.w3.org/1999/xlink" x="0px" y="0px"
	 viewBox="0 0 800 800" style="enable-background:new 0 0 800 800;" xml:space="preserve">
<style type="text/css">
	.st0{fill:#7A8A7B;}
	.st1{fill:#775D32;}
</style>
<rect x="387.88" y="45.39" transform="matrix(-1.836970e-16 1 -1 -1.836970e-16 807.4421 -17.6087)" class="st0" width="49.28" height="699.05"/>
<path class="st1" d="M333.19,264.87c-5.95,17.78-16.68,47.35-33.83,82.23c-41.12,83.59-104.97,168.86-121.06,160.8
	c-1.8-0.9-2.56-3.07-4.09-7.4c-7.5-21.26,2.8-46.98,6.27-46.46c7.79,1.18,21.11,140.5-44.58,189.58
	c-26.27,19.62-60.09,21.02-59.14,30.36c1.08,10.63,45.48,14.4,57.06,15.39c20.84,1.77,36.47,3.1,55.48-3.02
	c2.95-0.95,33.56-11.13,48.53-32.87c37.71-54.75-56-136.03-19.98-212.2c7.57-16,15.66-20.79,36.71-60.17
	c18.78-35.14,15.12-36.54,29.57-60.77c1.08-1.82,0.35-0.53,16.16-24.1c24.63-36.75,27.22-40.91,29.91-47.8
	c6.9-17.62,6.47-32.73,6.26-46.07c-0.54-32.94-11.47-48.26-16.6-71.94c-4.12-19.02-13.28-71.21,12.74-92.89
	c13.37-11.14,37.65-15.49,46.58-5.8c27.03,29.35-93.48,180.07-93.67,179.94c-0.1-0.07,37.51-39.6,47.04-85.43
	c1.36-6.53,4.59-24.94,16.08-46.26c4.65-8.62,9.33-15.27,12.65-19.65"/>
<rect x="63" y="42.42" class="st0" width="49.28" height="711.67"/>
<rect x="387.88" y="-282.47" transform="matrix(-1.836970e-16 1 -1 -1.836970e-16 479.5833 -345.4674)" class="st0" width="49.28" height="699.05"/>
<rect x="387.88" y="379.92" transform="matrix(-1.836970e-16 1 -1 -1.836970e-16 1141.9674 316.9167)" class="st0" width="49.28" height="699.05"/>
<rect x="203.21" y="169.08" class="st0" width="93.75" height="93.75"/>
<rect x="528.09" y="515.3" class="st0" width="93.75" height="93.75"/>
<rect x="203.21" y="515.3" class="st0" width="93.75" height="93.75"/>
<path class="st0" d="M292.57,448.1c-48.43,96.1-96.86,192.19-145.29,288.29"/>
<path class="st1" d="M647.88,227.29c5.89,9.27,13.43,22.52,20.48,39.63c0.77,1.86,8.81,21.59,14.1,44.66
	c13.19,57.52-0.2,94.59,11.23,155.31c7.21,38.31,25.31,91.41,45.65,93.35c16.32,1.55,28.54-30.33,28.63-30.24
	c0.21,0.22-87.04,151.69-94.95,144.21c-6.01-5.69,36.29-100.91,56.58-206.66c4.14-21.6,10.47-59.81-1.01-99.23
	c-6.12-21.02-13.8-37.03-13.8-37.03c-11.54-24.08-20.82-31.54-27.54-55.44c-2.87-10.21-4.03-19.02-4.62-23.54
	c-1.68-13.04-1.63-23.78-0.75-40.69c1.42-27.52,2.14-41.29,4.38-52.94c8.11-42.19,25.52-52.02,20.11-67.19
	c-4.79-13.45-19.04-7.34-36.33-26.82c-16.14-18.19-17.42-38.96-21.32-38.22c-6.76,1.28-4.81,64.15,4.78,127.08
	c3.48,22.86,7.35,48.25,16.35,81.58c17.12,63.44,31.65,77.22,25.85,99.79c-4.72,18.34-18.53,27.53-22.57,30.27
	c-4.19,2.85-20.3,12.81-39.7,5.27c-18.49-7.19-28.92-26-31.52-30.83c-18.68-34.67-2.74-61.51-19.78-124.64
	c-4.82-17.85-8.47-24.5-6.73-26.12c5.22-4.89,48.13,45.69,69.07,113.39c4.13,13.34,14.36,46.43,8.1,51.49
	c-7.06,5.71-36.76-22.97-45.49-60.25c-4.15-17.73-2.99-34.97-1.46-57.78c1.41-20.93,3.87-29.6,5.21-41.31
	c5.71-49.94-15.34-98.67-17.21-98.04c-9.31,3.14-19.39,222.89,70.2,322.3c20.1,22.31,40.6,33.36,52.47,38.74"/>
<rect x="528.09" y="169.08" class="st0" width="93.75" height="93.75"/>
<rect x="712.77" y="42.42" class="st0" width="49.28" height="706.67"/>
<path class="st1" d="M302.98,702.85c30.85,2.66,79.34,6.44,148.41,10.32c0.78,0.04,3.22,0.18,5.88,0.33
	c73.68,4.05,226.95,12.49,234.5,1.06c2.45-3.71-10.68-9.21-21.97-12.19c-64.44-17.03-143.29,28.25-294.35,35.61
	c-20.35,0.99-144.57,7.04-179.02-20c-18.34-14.39-8.05-35.64,8.79-38.05c18.08-2.58,33.88,18,99.95,37.07
	c24.42,7.05,48.15,13.72,80.18,14.15c34.04,0.45,33.46-6.74,83.47-11.71c43.54-4.33,57.8-0.25,133.99-5.37
	c16.24-1.09,24.3-1.86,32.5-2.87c19.32-2.39,53.36-6.59,77.33-18.1c16.86-8.1,10.14-10.88,30.75-25.36
	c24.65-17.32,46.63-22.03,43.93-24.39c-9.82-8.56-306.6,47.83-302.03,53.17c2.9,3.38,124.32-16.87,129.6-11.22
	c3.43,3.67-42.97,17.24-91.16,24.88c-38.17,6.05-72.2,7.55-95.55,7.8"/>
<rect x="387.88" y="42.42" class="st0" width="49.28" height="706.67"/>
</svg>
